G04*
G04 #@! TF.GenerationSoftware,Altium Limited,CircuitStudio,1.5.2 (30)*
G04*
G04 Layer_Color=8150272*
%FSLAX25Y25*%
%MOIN*%
G70*
G01*
G75*
%ADD48C,0.07001*%
%ADD49C,0.06800*%
%ADD50C,0.07296*%
%ADD51R,0.07296X0.07296*%
%ADD52R,0.06942X0.06942*%
%ADD53C,0.06942*%
%ADD54R,0.06706X0.06706*%
%ADD55C,0.06706*%
%ADD56C,0.05800*%
D48*
X479724Y192126D02*
D03*
X448228D02*
D03*
D49*
X124409Y178740D02*
D03*
X127500Y462000D02*
D03*
X549500Y460000D02*
D03*
X546457Y180315D02*
D03*
D50*
X126106Y292685D02*
D03*
Y237185D02*
D03*
Y345185D02*
D03*
Y399185D02*
D03*
D51*
Y272685D02*
D03*
Y217185D02*
D03*
Y325185D02*
D03*
Y379185D02*
D03*
D52*
X292126Y352992D02*
D03*
D53*
Y342992D02*
D03*
Y172992D02*
D03*
Y332992D02*
D03*
Y322992D02*
D03*
Y312992D02*
D03*
Y302992D02*
D03*
Y292992D02*
D03*
Y282992D02*
D03*
Y272992D02*
D03*
Y262992D02*
D03*
Y252992D02*
D03*
Y242992D02*
D03*
Y232992D02*
D03*
Y222992D02*
D03*
Y212992D02*
D03*
Y202992D02*
D03*
Y192992D02*
D03*
Y182992D02*
D03*
X392126Y352992D02*
D03*
Y342992D02*
D03*
Y332992D02*
D03*
Y322992D02*
D03*
Y312992D02*
D03*
Y302992D02*
D03*
Y292992D02*
D03*
Y282992D02*
D03*
Y272992D02*
D03*
Y262992D02*
D03*
Y252992D02*
D03*
Y242992D02*
D03*
Y232992D02*
D03*
Y222992D02*
D03*
Y212992D02*
D03*
Y202992D02*
D03*
Y192992D02*
D03*
Y182992D02*
D03*
Y172992D02*
D03*
D54*
X463386Y354724D02*
D03*
D55*
X473386D02*
D03*
X483386D02*
D03*
X493386D02*
D03*
D56*
X441700Y244000D02*
D03*
X485200Y232700D02*
D03*
X483900Y362000D02*
D03*
X214500Y263000D02*
D03*
X250008Y407661D02*
D03*
X464500Y226600D02*
D03*
X459400Y240800D02*
D03*
M02*
