M48
;Layer_Color=6321
;FILE_FORMAT=2:5
INCH,LZ
;TYPE=PLATED
T1F00S00C0.02800
T2F00S00C0.03543
T3F00S00C0.04094
T4F00S00C0.04134
T5F00S00C0.04331
T6F00S00C0.20000
%
T01
X04852Y02327
X04645Y02266
X04594Y02408
X04417Y0244
X02145Y0263
X0250008Y0407661
X04839Y0362
T02
X0463386Y0354724
X0473386
X0483386
X0493386
T03
X0392126Y0172992
Y0182992
Y0192992
Y0202992
Y0212992
Y0222992
Y0232992
Y0242992
Y0252992
Y0262992
Y0272992
Y0282992
Y0292992
Y0302992
X0292126
Y0292992
Y0282992
Y0272992
Y0262992
Y0252992
Y0242992
Y0232992
Y0222992
Y0212992
Y0202992
Y0192992
Y0182992
Y0172992
Y0312992
Y0322992
Y0332992
Y0342992
Y0352992
X0392126
Y0342992
Y0332992
Y0322992
Y0312992
T04
X0479724Y0192126
X0448228
T05
X0126106Y0217185
Y0237185
Y0272685
Y0292685
Y0325185
Y0345185
Y0379185
Y0399185
T06
X0546457Y0180315
X0124409Y017874
X01275Y0462
X05495Y046
M30
