G04*
G04 #@! TF.GenerationSoftware,Altium Limited,CircuitStudio,1.5.2 (30)*
G04*
G04 Layer_Color=20142*
%FSLAX25Y25*%
%MOIN*%
G70*
G01*
G75*
%ADD37R,0.07099X0.06312*%
%ADD38R,0.05524X0.09461*%
%ADD39R,0.05524X0.06312*%
%ADD40R,0.03556X0.07099*%
%ADD41R,0.07887X0.05328*%
%ADD42R,0.06706X0.06312*%
%ADD43R,0.25210X0.23635*%
%ADD44R,0.12611X0.07099*%
%ADD45R,0.08792X0.06312*%
%ADD46R,0.11627X0.04737*%
%ADD47R,0.05328X0.07887*%
%ADD48C,0.07001*%
%ADD49C,0.06800*%
%ADD50C,0.07296*%
%ADD51R,0.07296X0.07296*%
%ADD52R,0.06942X0.06942*%
%ADD53C,0.06942*%
%ADD54R,0.06706X0.06706*%
%ADD55C,0.06706*%
%ADD56C,0.05800*%
D37*
X494685Y231496D02*
D03*
D38*
X498228Y193701D02*
D03*
X437204Y193465D02*
D03*
D39*
Y231496D02*
D03*
D40*
X441929Y233465D02*
D03*
X446259D02*
D03*
X450590D02*
D03*
X454921D02*
D03*
X459251D02*
D03*
X463582D02*
D03*
X467913D02*
D03*
X472244D02*
D03*
X476574D02*
D03*
D41*
X263386Y240354D02*
D03*
Y251772D02*
D03*
X264567Y282086D02*
D03*
Y293504D02*
D03*
X262992Y334842D02*
D03*
Y323425D02*
D03*
Y363976D02*
D03*
Y375394D02*
D03*
D42*
X245669Y239764D02*
D03*
Y251575D02*
D03*
Y281496D02*
D03*
Y293307D02*
D03*
X246457Y322835D02*
D03*
Y334646D02*
D03*
Y364173D02*
D03*
Y375984D02*
D03*
D43*
X198425Y245669D02*
D03*
X198819Y287008D02*
D03*
X200394Y327165D02*
D03*
X200787Y368898D02*
D03*
D44*
X226772Y254685D02*
D03*
Y236653D02*
D03*
X227165Y296024D02*
D03*
Y277992D02*
D03*
X228740Y336181D02*
D03*
Y318150D02*
D03*
X229134Y377913D02*
D03*
Y359882D02*
D03*
D45*
X172835Y253701D02*
D03*
Y239212D02*
D03*
X174803Y294646D02*
D03*
Y280157D02*
D03*
Y335590D02*
D03*
Y321102D02*
D03*
Y375354D02*
D03*
Y360866D02*
D03*
D46*
X319791Y406661D02*
D03*
X296169D02*
D03*
X319791Y422409D02*
D03*
X296169D02*
D03*
X505291Y405161D02*
D03*
X481669D02*
D03*
X505291Y420909D02*
D03*
X481669D02*
D03*
X263291Y407661D02*
D03*
X239669D02*
D03*
X263291Y423409D02*
D03*
X239669D02*
D03*
X437791Y405661D02*
D03*
X414169D02*
D03*
X437791Y421409D02*
D03*
X414169D02*
D03*
X205118Y407874D02*
D03*
X181496D02*
D03*
X205118Y423622D02*
D03*
X181496D02*
D03*
X374291Y405661D02*
D03*
X350669D02*
D03*
X374291Y421409D02*
D03*
X350669D02*
D03*
D47*
X462402Y374410D02*
D03*
X473819D02*
D03*
D48*
X479724Y192126D02*
D03*
X448228D02*
D03*
D49*
X124409Y178740D02*
D03*
X127500Y462000D02*
D03*
X549500Y460000D02*
D03*
X546457Y180315D02*
D03*
D50*
X126106Y292685D02*
D03*
Y237185D02*
D03*
Y345185D02*
D03*
Y399185D02*
D03*
D51*
Y272685D02*
D03*
Y217185D02*
D03*
Y325185D02*
D03*
Y379185D02*
D03*
D52*
X292126Y352992D02*
D03*
D53*
Y342992D02*
D03*
Y172992D02*
D03*
Y332992D02*
D03*
Y322992D02*
D03*
Y312992D02*
D03*
Y302992D02*
D03*
Y292992D02*
D03*
Y282992D02*
D03*
Y272992D02*
D03*
Y262992D02*
D03*
Y252992D02*
D03*
Y242992D02*
D03*
Y232992D02*
D03*
Y222992D02*
D03*
Y212992D02*
D03*
Y202992D02*
D03*
Y192992D02*
D03*
Y182992D02*
D03*
X392126Y352992D02*
D03*
Y342992D02*
D03*
Y332992D02*
D03*
Y322992D02*
D03*
Y312992D02*
D03*
Y302992D02*
D03*
Y292992D02*
D03*
Y282992D02*
D03*
Y272992D02*
D03*
Y262992D02*
D03*
Y252992D02*
D03*
Y242992D02*
D03*
Y232992D02*
D03*
Y222992D02*
D03*
Y212992D02*
D03*
Y202992D02*
D03*
Y192992D02*
D03*
Y182992D02*
D03*
Y172992D02*
D03*
D54*
X463386Y354724D02*
D03*
D55*
X473386D02*
D03*
X483386D02*
D03*
X493386D02*
D03*
D56*
X441700Y244000D02*
D03*
X485200Y232700D02*
D03*
X483900Y362000D02*
D03*
X214500Y263000D02*
D03*
X250008Y407661D02*
D03*
X464500Y226600D02*
D03*
X459400Y240800D02*
D03*
M02*
