G04*
G04 #@! TF.GenerationSoftware,Altium Limited,CircuitStudio,1.5.2 (30)*
G04*
G04 Layer_Physical_Order=2*
G04 Layer_Color=12500520*
%FSLAX25Y25*%
%MOIN*%
G70*
G01*
G75*
%ADD21C,0.01000*%
%ADD22C,0.06201*%
%ADD23C,0.06000*%
%ADD24C,0.06496*%
%ADD25R,0.06496X0.06496*%
%ADD26R,0.06142X0.06142*%
%ADD27C,0.06142*%
%ADD28R,0.05906X0.05906*%
%ADD29C,0.05906*%
%ADD30C,0.05000*%
D21*
X392126Y306200D02*
X443900D01*
X422708Y262992D02*
X441700Y244000D01*
X392126Y262992D02*
X422708D01*
X455492Y202992D02*
X485200Y232700D01*
X392126Y202992D02*
X455492D01*
X392126Y302992D02*
Y306200D01*
X443900D02*
X477900Y340200D01*
Y356000D01*
X483900Y362000D01*
X214508Y262992D02*
X292126D01*
X214500Y263000D02*
X214508Y262992D01*
X250008Y315110D02*
Y407661D01*
Y315110D02*
X292126Y272992D01*
X483386Y304000D02*
Y354724D01*
X462378Y282992D02*
X483386Y304000D01*
X392126Y282992D02*
X462378D01*
X493386Y307486D02*
Y354724D01*
X458892Y272992D02*
X493386Y307486D01*
X392126Y272992D02*
X458892D01*
X131913Y222992D02*
X292126D01*
X126106Y217185D02*
X131913Y222992D01*
X418518Y226600D02*
X464500D01*
X392126Y252992D02*
X418518Y226600D01*
X455600Y237000D02*
X459400Y240800D01*
X425200Y237000D02*
X455600D01*
X404600Y257600D02*
X425200Y237000D01*
X390000Y257600D02*
X404600D01*
X387500Y255100D02*
X390000Y257600D01*
X387500Y247618D02*
Y255100D01*
Y247618D02*
X392126Y242992D01*
X434073Y354724D02*
X463386D01*
X432341Y352992D02*
X434073Y354724D01*
X392126Y352992D02*
X432341D01*
X462210Y365900D02*
X473386Y354724D01*
X305034Y365900D02*
X462210D01*
X292126Y352992D02*
X305034Y365900D01*
D22*
X479724Y192126D02*
D03*
X448228D02*
D03*
D23*
X124409Y178740D02*
D03*
X127500Y462000D02*
D03*
X549500Y460000D02*
D03*
X546457Y180315D02*
D03*
D24*
X126106Y292685D02*
D03*
Y237185D02*
D03*
Y345185D02*
D03*
Y399185D02*
D03*
D25*
Y272685D02*
D03*
Y217185D02*
D03*
Y325185D02*
D03*
Y379185D02*
D03*
D26*
X292126Y352992D02*
D03*
D27*
Y342992D02*
D03*
Y172992D02*
D03*
Y332992D02*
D03*
Y322992D02*
D03*
Y312992D02*
D03*
Y302992D02*
D03*
Y292992D02*
D03*
Y282992D02*
D03*
Y272992D02*
D03*
Y262992D02*
D03*
Y252992D02*
D03*
Y242992D02*
D03*
Y232992D02*
D03*
Y222992D02*
D03*
Y212992D02*
D03*
Y202992D02*
D03*
Y192992D02*
D03*
Y182992D02*
D03*
X392126Y352992D02*
D03*
Y342992D02*
D03*
Y332992D02*
D03*
Y322992D02*
D03*
Y312992D02*
D03*
Y302992D02*
D03*
Y292992D02*
D03*
Y282992D02*
D03*
Y272992D02*
D03*
Y262992D02*
D03*
Y252992D02*
D03*
Y242992D02*
D03*
Y232992D02*
D03*
Y222992D02*
D03*
Y212992D02*
D03*
Y202992D02*
D03*
Y192992D02*
D03*
Y182992D02*
D03*
Y172992D02*
D03*
D28*
X463386Y354724D02*
D03*
D29*
X473386D02*
D03*
X483386D02*
D03*
X493386D02*
D03*
D30*
X441700Y244000D02*
D03*
X485200Y232700D02*
D03*
X483900Y362000D02*
D03*
X214500Y263000D02*
D03*
X250008Y407661D02*
D03*
X464500Y226600D02*
D03*
X459400Y240800D02*
D03*
M02*
