G04*
G04 #@! TF.GenerationSoftware,Altium Limited,CircuitStudio,1.5.2 (30)*
G04*
G04 Layer_Physical_Order=1*
G04 Layer_Color=11767835*
%FSLAX25Y25*%
%MOIN*%
G70*
G01*
G75*
%ADD10R,0.06299X0.05512*%
%ADD11R,0.04724X0.08661*%
%ADD12R,0.04724X0.05512*%
%ADD13R,0.02756X0.06299*%
%ADD14R,0.07087X0.04528*%
%ADD15R,0.05906X0.05512*%
%ADD16R,0.24410X0.22835*%
%ADD17R,0.11811X0.06299*%
%ADD18R,0.07992X0.05512*%
%ADD19R,0.10827X0.03937*%
%ADD20R,0.04528X0.07087*%
%ADD21C,0.01000*%
%ADD22C,0.06201*%
%ADD23C,0.06000*%
%ADD24C,0.06496*%
%ADD25R,0.06496X0.06496*%
%ADD26R,0.06142X0.06142*%
%ADD27C,0.06142*%
%ADD28R,0.05906X0.05906*%
%ADD29C,0.05906*%
%ADD30C,0.05000*%
D10*
X494685Y231496D02*
D03*
D11*
X498228Y193701D02*
D03*
X437204Y193465D02*
D03*
D12*
Y231496D02*
D03*
D13*
X441929Y233465D02*
D03*
X446259D02*
D03*
X450590D02*
D03*
X454921D02*
D03*
X459251D02*
D03*
X463582D02*
D03*
X467913D02*
D03*
X472244D02*
D03*
X476574D02*
D03*
D14*
X263386Y240354D02*
D03*
Y251772D02*
D03*
X264567Y282086D02*
D03*
Y293504D02*
D03*
X262992Y334842D02*
D03*
Y323425D02*
D03*
Y363976D02*
D03*
Y375394D02*
D03*
D15*
X245669Y239764D02*
D03*
Y251575D02*
D03*
Y281496D02*
D03*
Y293307D02*
D03*
X246457Y322835D02*
D03*
Y334646D02*
D03*
Y364173D02*
D03*
Y375984D02*
D03*
D16*
X198425Y245669D02*
D03*
X198819Y287008D02*
D03*
X200394Y327165D02*
D03*
X200787Y368898D02*
D03*
D17*
X226772Y254685D02*
D03*
Y236653D02*
D03*
X227165Y296024D02*
D03*
Y277992D02*
D03*
X228740Y336181D02*
D03*
Y318150D02*
D03*
X229134Y377913D02*
D03*
Y359882D02*
D03*
D18*
X172835Y253701D02*
D03*
Y239212D02*
D03*
X174803Y294646D02*
D03*
Y280157D02*
D03*
Y335590D02*
D03*
Y321102D02*
D03*
Y375354D02*
D03*
Y360866D02*
D03*
D19*
X319791Y406661D02*
D03*
X296169D02*
D03*
X319791Y422409D02*
D03*
X296169D02*
D03*
X505291Y405161D02*
D03*
X481669D02*
D03*
X505291Y420909D02*
D03*
X481669D02*
D03*
X263291Y407661D02*
D03*
X239669D02*
D03*
X263291Y423409D02*
D03*
X239669D02*
D03*
X437791Y405661D02*
D03*
X414169D02*
D03*
X437791Y421409D02*
D03*
X414169D02*
D03*
X205118Y407874D02*
D03*
X181496D02*
D03*
X205118Y423622D02*
D03*
X181496D02*
D03*
X374291Y405661D02*
D03*
X350669D02*
D03*
X374291Y421409D02*
D03*
X350669D02*
D03*
D20*
X462402Y374410D02*
D03*
X473819D02*
D03*
D21*
X463582Y344921D02*
X468862Y350200D01*
X483900Y362000D02*
Y405161D01*
X264300Y351300D02*
Y363976D01*
X246457Y364173D02*
X262992D01*
X296100Y382200D02*
Y406661D01*
X454921Y228000D02*
Y230000D01*
X437204Y228800D02*
X453721D01*
X437204D02*
Y231496D01*
X450590Y233465D02*
Y237000D01*
X443590Y244000D02*
X450590Y237000D01*
X441700Y244000D02*
X443590D01*
X472244Y230000D02*
Y233465D01*
Y230000D02*
X473444Y228800D01*
X481300D01*
X485200Y232700D01*
X481669Y405161D02*
X483900D01*
X350669Y405661D02*
X361639D01*
X384200Y383100D01*
Y332000D02*
Y383100D01*
Y332000D02*
X387800Y328400D01*
X394000D01*
X396697Y331097D01*
Y338421D01*
X392126Y342992D02*
X396697Y338421D01*
X262992Y363976D02*
X264300D01*
Y351300D02*
X287300Y328300D01*
Y257818D02*
Y328300D01*
Y257818D02*
X292126Y252992D01*
X214500Y263000D02*
Y381900D01*
X188526Y407874D02*
X214500Y381900D01*
X181496Y407874D02*
X188526D01*
X239669Y407661D02*
X250008D01*
X164000Y239212D02*
X172835D01*
X159688Y243525D02*
X164000Y239212D01*
X159688Y243525D02*
Y291604D01*
X126106Y325185D02*
X159688Y291604D01*
X170000Y280157D02*
X174803D01*
X168000Y282157D02*
X170000Y280157D01*
X168000Y282157D02*
Y303291D01*
X126106Y345185D02*
X168000Y303291D01*
X126106Y379185D02*
X158098Y347193D01*
Y327004D02*
Y347193D01*
Y327004D02*
X164000Y321102D01*
X174803D01*
X489996Y231496D02*
X494685D01*
X481033Y222533D02*
X489996Y231496D01*
X460388Y222533D02*
X481033D01*
X454921Y228000D02*
X460388Y222533D01*
X481669Y416669D02*
Y420909D01*
X473819Y408819D02*
X481669Y416669D01*
X473819Y374410D02*
Y408819D01*
X255900Y416018D02*
X263291Y423409D01*
X255900Y382486D02*
Y416018D01*
Y382486D02*
X262992Y375394D01*
X227165Y296024D02*
Y303900D01*
X220900Y310165D02*
X227165Y303900D01*
X220900Y310165D02*
Y328341D01*
X228740Y336181D01*
X219300Y288158D02*
X227165Y296024D01*
X219300Y262157D02*
Y288158D01*
Y262157D02*
X226772Y254685D01*
X262992Y313608D02*
Y323425D01*
Y313608D02*
X284800Y291800D01*
Y250318D02*
Y291800D01*
Y250318D02*
X292126Y242992D01*
X245669Y274000D02*
Y281496D01*
Y274000D02*
X263869Y255800D01*
X269318D01*
X292126Y232992D01*
X392126Y352992D02*
X398697Y346421D01*
Y299563D02*
Y346421D01*
X392126Y292992D02*
X398697Y299563D01*
X462402Y366800D02*
Y374410D01*
X458900Y363298D02*
X462402Y366800D01*
X458900Y350200D02*
Y363298D01*
Y350200D02*
X468862D01*
X473386Y354724D01*
X467913Y230013D02*
Y233465D01*
X464500Y226600D02*
X467913Y230013D01*
X459251Y233465D02*
Y240651D01*
X459400Y240800D01*
X221700Y336181D02*
X228740D01*
X221700D02*
Y376613D01*
X223000Y377913D01*
X229134D01*
X262992Y363976D02*
Y364173D01*
X463582Y233465D02*
Y344921D01*
X292126Y212992D02*
Y215474D01*
X267246Y240354D02*
X292126Y215474D01*
X263386Y240354D02*
X267246D01*
X292126Y222992D02*
Y226274D01*
X266628Y251772D02*
X292126Y226274D01*
X263386Y251772D02*
X266628D01*
X164425Y360866D02*
X174803D01*
X126106Y399185D02*
X164425Y360866D01*
X392126Y292992D02*
X437204Y247914D01*
Y231496D02*
Y247914D01*
X473819Y365157D02*
Y374410D01*
X463386Y354724D02*
X473819Y365157D01*
X392000Y405661D02*
X414169D01*
X387500Y401161D02*
X392000Y405661D01*
X387500Y337618D02*
Y401161D01*
Y337618D02*
X392126Y332992D01*
X453721Y228800D02*
X454921Y230000D01*
Y233465D01*
X296100Y406661D02*
X296169D01*
X296100Y382200D02*
X296700Y381600D01*
Y287566D02*
Y381600D01*
X292126Y282992D02*
X296700Y287566D01*
X237710Y239764D02*
X245669D01*
X234600Y236653D02*
X237710Y239764D01*
X226772Y236653D02*
X234600D01*
X254791Y240354D02*
X263386D01*
X254200Y239764D02*
X254791Y240354D01*
X245669Y239764D02*
X254200D01*
X238104Y281496D02*
X245669D01*
X234600Y277992D02*
X238104Y281496D01*
X227165Y277992D02*
X234600D01*
X255390Y282086D02*
X264567D01*
X254800Y281496D02*
X255390Y282086D01*
X245669Y281496D02*
X254800D01*
X239885Y322835D02*
X246457D01*
X235200Y318150D02*
X239885Y322835D01*
X228740Y318150D02*
X235200D01*
X254990Y323425D02*
X262992D01*
X254400Y322835D02*
X254990Y323425D01*
X246457Y322835D02*
X254400D01*
X239892Y364173D02*
X246457D01*
X235600Y359882D02*
X239892Y364173D01*
X229134Y359882D02*
X235600D01*
X189631Y245669D02*
X198425D01*
X181600Y253701D02*
X189631Y245669D01*
X172835Y253701D02*
X181600D01*
X190538Y287008D02*
X198819D01*
X182900Y294646D02*
X190538Y287008D01*
X174803Y294646D02*
X182900D01*
X191725Y327165D02*
X200394D01*
X183300Y335590D02*
X191725Y327165D01*
X174803Y335590D02*
X183300D01*
X190957Y368898D02*
X200787D01*
X184500Y375354D02*
X190957Y368898D01*
X174803Y375354D02*
X184500D01*
X494685Y214343D02*
Y231496D01*
Y214343D02*
X498228Y210800D01*
Y193701D02*
Y210800D01*
X437204Y193465D02*
Y228800D01*
X461409Y420909D02*
X481669D01*
X458000Y417500D02*
X461409Y420909D01*
X427909Y417500D02*
X458000D01*
X424000Y421409D02*
X427909Y417500D01*
X414169Y421409D02*
X424000D01*
X335700D02*
X350669D01*
X334700Y422409D02*
X335700Y421409D01*
X319791Y422409D02*
X334700D01*
X238336Y334646D02*
X246457D01*
X236800Y336181D02*
X238336Y334646D01*
X228740Y336181D02*
X236800D01*
X254797Y334842D02*
X262992D01*
X254600Y334646D02*
X254797Y334842D01*
X246457Y334646D02*
X254600D01*
X309891Y422409D02*
X319791D01*
X306000Y426300D02*
X309891Y422409D01*
X281091Y426300D02*
X306000D01*
X278200Y423409D02*
X281091Y426300D01*
X263291Y423409D02*
X278200D01*
X205118Y423622D02*
X220522D01*
X224200Y427300D01*
X249509D01*
X253400Y423409D01*
X263291D01*
X238729Y375984D02*
X246457D01*
X236800Y377913D02*
X238729Y375984D01*
X229134Y377913D02*
X236800D01*
X254991Y375394D02*
X262992D01*
X254400Y375984D02*
X254991Y375394D01*
X246457Y375984D02*
X254400D01*
X237710Y251575D02*
X245669D01*
X234600Y254685D02*
X237710Y251575D01*
X226772Y254685D02*
X234600D01*
X254597Y251772D02*
X263386D01*
X254400Y251575D02*
X254597Y251772D01*
X245669Y251575D02*
X254400D01*
X237717Y293307D02*
X245669D01*
X235000Y296024D02*
X237717Y293307D01*
X227165Y296024D02*
X235000D01*
X255197Y293504D02*
X264567D01*
X255000Y293307D02*
X255197Y293504D01*
X245669Y293307D02*
X255000D01*
X126106Y237185D02*
Y272685D01*
Y292685D01*
X396009Y421409D02*
X414169D01*
X392500Y417900D02*
X396009Y421409D01*
X364209Y417900D02*
X392500D01*
X360700Y421409D02*
X364209Y417900D01*
X350669Y421409D02*
X360700D01*
D22*
X479724Y192126D02*
D03*
X448228D02*
D03*
D23*
X124409Y178740D02*
D03*
X127500Y462000D02*
D03*
X549500Y460000D02*
D03*
X546457Y180315D02*
D03*
D24*
X126106Y292685D02*
D03*
Y237185D02*
D03*
Y345185D02*
D03*
Y399185D02*
D03*
D25*
Y272685D02*
D03*
Y217185D02*
D03*
Y325185D02*
D03*
Y379185D02*
D03*
D26*
X292126Y352992D02*
D03*
D27*
Y342992D02*
D03*
Y172992D02*
D03*
Y332992D02*
D03*
Y322992D02*
D03*
Y312992D02*
D03*
Y302992D02*
D03*
Y292992D02*
D03*
Y282992D02*
D03*
Y272992D02*
D03*
Y262992D02*
D03*
Y252992D02*
D03*
Y242992D02*
D03*
Y232992D02*
D03*
Y222992D02*
D03*
Y212992D02*
D03*
Y202992D02*
D03*
Y192992D02*
D03*
Y182992D02*
D03*
X392126Y352992D02*
D03*
Y342992D02*
D03*
Y332992D02*
D03*
Y322992D02*
D03*
Y312992D02*
D03*
Y302992D02*
D03*
Y292992D02*
D03*
Y282992D02*
D03*
Y272992D02*
D03*
Y262992D02*
D03*
Y252992D02*
D03*
Y242992D02*
D03*
Y232992D02*
D03*
Y222992D02*
D03*
Y212992D02*
D03*
Y202992D02*
D03*
Y192992D02*
D03*
Y182992D02*
D03*
Y172992D02*
D03*
D28*
X463386Y354724D02*
D03*
D29*
X473386D02*
D03*
X483386D02*
D03*
X493386D02*
D03*
D30*
X441700Y244000D02*
D03*
X485200Y232700D02*
D03*
X483900Y362000D02*
D03*
X214500Y263000D02*
D03*
X250008Y407661D02*
D03*
X464500Y226600D02*
D03*
X459400Y240800D02*
D03*
M02*
